# xmcd
#
# Track frame offsets:
#	150
#	17846
#	38439
#	53198
#	70037
#	94309
#	119270
#	135968
#	168841
#	187486
#	209519
#	232199
#	254876
#	277166
#	296717
#	323605
#
# Disc length: 4537 seconds
#
# Revision: 1
# Processed by: cddbd v1.5.2PL0 Copyright (c) Steve Scherf et al.
# Submitted via: audiograbber 1.83.01
#
DISCID=f811b710
DTITLE=Wyland Blues Planet Band - Blues Planet II
DYEAR=2012
DGENRE=Blues
TTITLE0=Down On The Water
TTITLE1=Oil Everywhere
TTITLE2=Come Home
TTITLE3=Going Down To New Orleans
TTITLE4=Saved By The Sea
TTITLE5=The World Is Crying
TTITLE6=Next Day Blues
TTITLE7=Days Gone By
TTITLE8=No Future
TTITLE9=Get My Baby Back
TTITLE10=Natural World Music
TTITLE11=Feeling Kind Of Blue
TTITLE12=Somebody Stole Our Planet's Love
TTITLE13=Nature's Way
TTITLE14=Your Day Is Coming
TTITLE15=Blues Guitar Harp Duet
EXTD=
EXTT0=
EXTT1=
EXTT2=
EXTT3=
EXTT4=
EXTT5=
EXTT6=
EXTT7=
EXTT8=
EXTT9=
EXTT10=
EXTT11=
EXTT12=
EXTT13=
EXTT14=
EXTT15=
PLAYORDER=
